<?xml version="1.0" encoding="UTF-8"?>
<svg id="Layer_2" xmlns="http://www.w3.org/2000/svg" viewBox="0 0 4710.77 626.25">
  <defs>
    <style>
      .cls-1 {
        fill: #121212;
      }

      .cls-2 {
        stroke: #121212;
        stroke-linecap: round;
        stroke-miterlimit: 10;
        stroke-width: 30px;
      }

      .cls-2, .cls-3 {
        fill: #f1efea;
      }

      .cls-4 {
        fill: #f66920;
      }
    </style>
  </defs>
  <g id="Layer_1-2" data-name="Layer_1">
    <g>
      <g>
        <rect class="cls-1" x="0" y="0" width="1363.71" height="626.25" rx="283.45" ry="283.45"/>
        <rect class="cls-2" x="366.96" y="56.93" width="945.64" height="512.38" rx="231.92" ry="231.92"/>
        <rect class="cls-4" x="1049.51" y="147.21" width="112.38" height="124.14" rx="56.19" ry="56.19"/>
        <g>
          <rect class="cls-1" x="434.58" y="131.19" width="344.7" height="363.86" rx="164.69" ry="164.69"/>
          <path class="cls-3" d="M720.02,240.48c-6.26,8.07-25.55,2.33-43.09-12.82-17.54-15.15-26.69-33.98-20.43-42.05,6.26-8.07,25.55-2.33,43.09,12.82,17.54,15.15,26.69,33.98,20.43,42.05Z"/>
        </g>
      </g>
      <g>
        <g>
          <path class="cls-1" d="M1595.97,253.11V55.92h-80.04v-24.02h189.95v24.02h-80.04v197.18h-29.88Z"/>
          <path class="cls-1" d="M1695.25,253.11l76.83-221.2h52.65l76.83,221.2h-30.95l-19.21-55.93h-106l-19.21,55.93h-30.95ZM1752.88,173.16h90.71l-42.69-125.14h-4.98l-43.04,125.14Z"/>
          <path class="cls-1" d="M1938.73,253.11V31.91h57.98l86.79,204.45h4.62V31.91h29.52v221.2h-57.98l-86.44-204.77h-4.98v204.77h-29.52Z"/>
          <path class="cls-1" d="M2159.6,253.11v-35.08l138.73-158.63v-3.79h-134.46v-23.7h163.99v35.08l-138.73,158.63v3.79h141.58v23.7h-171.1Z"/>
          <path class="cls-1" d="M2371.64,253.11V31.91h153.31v24.02h-123.43v73.94h113.47v24.02h-113.47v75.21h125.21v24.02h-155.09Z"/>
          <path class="cls-1" d="M2566.64,253.11V31.91h29.88v197.18h83.34v24.02h-113.22Z"/>
          <path class="cls-1" d="M2850.22,257.53c-18.02,0-34.15-2.84-48.38-8.53s-25.43-14.27-33.62-25.75c-8.18-11.48-12.27-25.86-12.27-43.13v-6.64h29.52v6.64c0,18.33,6.05,31.97,18.14,40.92,12.09,8.96,27.62,13.43,46.6,13.43s34.27-3.9,44.46-11.69c10.19-7.79,15.3-17.59,15.3-29.39,0-8.22-2.31-14.74-6.94-19.59-4.62-4.84-11.09-8.79-19.39-11.85-8.3-3.05-18.02-5.74-29.17-8.06l-18.5-4.11c-14.47-3.37-27.27-7.48-38.42-12.32-11.15-4.84-19.86-11.22-26.15-19.12-6.29-7.9-9.43-18.06-9.43-30.49s3.5-23.17,10.49-32.23c6.99-9.06,16.83-16.01,29.52-20.86,12.68-4.84,27.33-7.27,43.93-7.27s31.95,2.58,45.35,7.74c13.39,5.16,23.95,12.75,31.66,22.75,7.7,10.01,11.56,22.59,11.56,37.76v13.27h-29.52v-13.27c0-10.74-2.55-19.38-7.65-25.91-5.1-6.53-12.09-11.38-20.99-14.54-8.89-3.16-19.03-4.74-30.41-4.74-16.36,0-29.52,3.21-39.48,9.64-9.96,6.43-14.94,15.54-14.94,27.33,0,7.8,2.13,14.12,6.4,18.96,4.27,4.85,10.32,8.8,18.14,11.85,7.83,3.06,17.19,5.74,28.1,8.06l18.5,4.11c14.46,2.74,27.45,6.48,38.95,11.22,11.5,4.74,20.69,11.17,27.57,19.28,6.88,8.11,10.32,18.7,10.32,31.76s-3.68,24.44-11.03,34.13c-7.35,9.69-17.73,17.22-31.12,22.59-13.4,5.37-29.11,8.06-47.13,8.06Z"/>
        </g>
        <g>
          <path class="cls-1" d="M1683.58,539.76h-22.18v-50.99h-22.18v-50.99h-22.18v-76.48h-22.18v-76.48h44.36v76.48h22.18v76.48h44.36v-76.48h22.18v-76.48h44.36v76.48h-22.18v76.48h-22.18v50.99h-22.18v50.99h-22.18Z"/>
          <path class="cls-1" d="M1837.77,539.76h-22.18v-254.93h44.36v254.93h-22.18Z"/>
          <path class="cls-1" d="M2014.14,539.76h-66.54v-25.49h-22.18v-25.49h-22.18v-50.99h44.36v25.49h22.18v25.49h44.36v-25.49h22.18v-25.49h-22.18v-25.49h-66.54v-25.49h-22.18v-76.48h22.18v-25.49h88.72v25.49h22.18v25.49h-88.72v25.49h66.54v25.49h22.18v25.49h22.18v76.48h-22.18v25.49h-22.18v25.49h-22.18Z"/>
          <path class="cls-1" d="M2234.91,539.76h-66.54v-25.49h-22.18v-25.49h-22.18v-203.94h44.36v178.45h22.18v25.49h44.36v-25.49h22.18v-178.45h44.36v203.94h-22.18v25.49h-22.18v25.49h-22.18Z"/>
          <path class="cls-1" d="M2501.74,539.76h-22.18v-101.97h-88.72v101.97h-44.36v-203.94h22.18v-25.49h22.18v-25.49h88.72v25.49h22.18v25.49h22.18v203.94h-22.18ZM2457.38,386.81h22.18v-25.49h-22.18v-25.49h-44.36v25.49h-22.18v25.49h66.54Z"/>
          <path class="cls-1" d="M2657.67,539.76h-44.36v-25.49h-22.18v-25.49h-22.18v-203.94h44.36v178.45h22.18v25.49h44.36v50.99h-22.18Z"/>
          <path class="cls-1" d="M2888.34,539.76h-22.18v-203.94h22.18v-25.49h22.18v-25.49h88.72v25.49h22.18v25.49h22.18v101.97h-22.18v25.49h-22.18v25.49h-66.54v-25.49h-22.18v76.48h-22.18ZM2954.88,437.79h22.18v-25.49h22.18v-50.99h-22.18v-25.49h-44.36v25.49h-22.18v50.99h22.18v25.49h22.18Z"/>
          <path class="cls-1" d="M3242.19,539.76h-22.18v-127.46h-88.72v127.46h-44.36v-254.93h44.36v76.48h88.72v-76.48h44.36v254.93h-22.18Z"/>
          <path class="cls-1" d="M3465.94,539.76h-22.18v-101.97h-88.72v101.97h-44.36v-203.94h22.18v-25.49h22.18v-25.49h88.72v25.49h22.18v25.49h22.18v203.94h-22.18ZM3421.58,386.81h22.18v-25.49h-22.18v-25.49h-44.36v25.49h-22.18v25.49h66.54Z"/>
          <path class="cls-1" d="M3689.3,539.76h-22.18v-25.49h-22.18v-25.49h-66.54v50.99h-44.36v-203.94h22.18v-25.49h22.18v-25.49h88.72v25.49h22.18v25.49h22.18v101.97h-22.18v50.99h22.18v50.99h-22.18ZM3622.76,437.79h22.18v-25.49h22.18v-50.99h-22.18v-25.49h-44.36v25.49h-22.18v50.99h22.18v25.49h22.18Z"/>
          <path class="cls-1" d="M4000.49,539.76h-22.18v-178.45h-22.18v-25.49h-22.18v25.49h-22.18v178.45h-44.36v-178.45h-22.18v-25.49h-22.18v25.49h-22.18v178.45h-44.36v-203.94h22.18v-25.49h22.18v-25.49h66.54v25.49h44.36v-25.49h66.54v25.49h22.18v25.49h22.18v203.94h-22.18Z"/>
          <path class="cls-1" d="M4223.84,539.76h-22.18v-101.97h-88.72v101.97h-44.36v-203.94h22.18v-25.49h22.18v-25.49h88.72v25.49h22.18v25.49h22.18v203.94h-22.18ZM4179.48,386.81h22.18v-25.49h-22.18v-25.49h-44.36v25.49h-22.18v25.49h66.54Z"/>
          <path class="cls-1" d="M4445.53,386.81v-25.49h-22.18v-25.49h-66.54v25.49h-22.18v101.97h22.18v25.49h66.54v-25.49h22.18v-25.49h22.18v25.49h22.18v25.49h-22.18v25.49h-22.18v25.49h-110.9v-25.49h-22.18v-25.49h-22.18v-152.96h22.18v-25.49h22.18v-25.49h110.9v25.49h22.18v25.49h22.18v25.49h-22.18v25.49h-22.18Z"/>
          <path class="cls-1" d="M4622.05,539.76h-22.18v-76.48h-22.18v-25.49h-22.18v-25.49h-22.18v-127.46h44.36v101.97h22.18v25.49h44.36v-25.49h22.18v-101.97h44.36v127.46h-22.18v25.49h-22.18v25.49h-22.18v76.48h-22.18Z"/>
        </g>
      </g>
    </g>
  </g>
</svg>